<?xml version="1.0" encoding="UTF-8"?>
<svg version="1.1" xmlns="http://www.w3.org/2000/svg" width="32" height="32">
<path d="M0 0 C-0.020625 1.051875 -0.04125 2.10375 -0.0625 3.1875 C-0.01103198 6.32704904 0.26517187 8.96883396 1 12 C2.98 12 4.96 12 7 12 C7 12.99 7 13.98 7 15 C6.34 15 5.68 15 5 15 C4.9175 16.051875 4.835 17.10375 4.75 18.1875 C3.88627064 22.57812424 3.47496471 24.17154036 0 27 C-3.04214935 27.70203447 -6.01961735 28.12701078 -9.125 28.4453125 C-12.20176937 29.03892833 -13.68480302 29.94081038 -16 32 C-17.32 31.34 -18.64 30.68 -20 30 C-20 28.35 -20 26.7 -20 25 C-16.04 23.515 -16.04 23.515 -12 22 C-12.61488281 21.57589844 -13.22976563 21.15179687 -13.86328125 20.71484375 C-19.10297526 16.91251396 -22.27724542 14.3167668 -24 8 C-24.1875 4.5625 -24.1875 4.5625 -24 2 C-20.21283842 3.50362259 -16.44754813 5.05487001 -12.6875 6.625 C-11.61886719 7.07101563 -10.55023438 7.51703125 -9.44921875 7.9765625 C-8.23685547 8.48316406 -8.23685547 8.48316406 -7 9 C-6.81244141 7.83404297 -6.81244141 7.83404297 -6.62109375 6.64453125 C-5.79468788 3.1258094 -3.90608053 0 0 0 Z " fill="#800080" transform="translate(24,0)"/>
</svg>
